<svg id="container" width="100%" xmlns="http://www.w3.org/2000/svg" style="max-width: 700px;" viewBox="0 0 700 450" role="graphics-document document" aria-roledescription="xychart"><style>#container{font-family:"trebuchet ms",verdana,arial,sans-serif;font-size:16px;fill:#333;}@keyframes edge-animation-frame{from{stroke-dashoffset:0;}}@keyframes dash{to{stroke-dashoffset:0;}}#container .edge-animation-slow{stroke-dasharray:9,5!important;stroke-dashoffset:900;animation:dash 50s linear infinite;stroke-linecap:round;}#container .edge-animation-fast{stroke-dasharray:9,5!important;stroke-dashoffset:900;animation:dash 20s linear infinite;stroke-linecap:round;}#container .error-icon{fill:#552222;}#container .error-text{fill:#552222;stroke:#552222;}#container .edge-thickness-normal{stroke-width:1px;}#container .edge-thickness-thick{stroke-width:3.5px;}#container .edge-pattern-solid{stroke-dasharray:0;}#container .edge-thickness-invisible{stroke-width:0;fill:none;}#container .edge-pattern-dashed{stroke-dasharray:3;}#container .edge-pattern-dotted{stroke-dasharray:2;}#container .marker{fill:#333333;stroke:#333333;}#container .marker.cross{stroke:#333333;}#container svg{font-family:"trebuchet ms",verdana,arial,sans-serif;font-size:16px;}#container p{margin:0;}#container :root{--mermaid-font-family:"trebuchet ms",verdana,arial,sans-serif;}</style><g></g><g class="main"><rect width="700" height="450" class="background" fill="white"></rect><g class="chart-title"><text x="0" y="0" fill="#131300" font-size="20" dominant-baseline="middle" text-anchor="middle" transform="translate(350, 20) rotate(0)">F1 by Entity (Baseline vs Hybrid)</text></g><g class="plot"><g class="bar-plot-0"><rect x="59.893750953674314" y="384.25" width="49.4" height="24.75" fill="#ECECFF" stroke="#ECECFF" stroke-width="0"></rect><rect x="144.09464367457798" y="263.55" width="49.4" height="145.45" fill="#ECECFF" stroke="#ECECFF" stroke-width="0"></rect><rect x="228.29553639548166" y="146.4" width="49.4" height="262.6" fill="#ECECFF" stroke="#ECECFF" stroke-width="0"></rect><rect x="312.49642911638534" y="242.25000000000003" width="49.4" height="166.74999999999997" fill="#ECECFF" stroke="#ECECFF" stroke-width="0"></rect><rect x="396.697321837289" y="160.6" width="49.4" height="248.4" fill="#ECECFF" stroke="#ECECFF" stroke-width="0"></rect><rect x="480.89821455819265" y="114.44999999999999" width="49.4" height="294.55" fill="#ECECFF" stroke="#ECECFF" stroke-width="0"></rect><rect x="565.0991072790963" y="157.05" width="49.4" height="251.95" fill="#ECECFF" stroke="#ECECFF" stroke-width="0"></rect><rect x="649.3" y="135.75" width="49.4" height="273.25" fill="#ECECFF" stroke="#ECECFF" stroke-width="0"></rect></g><g class="bar-plot-1"><rect x="59.893750953674314" y="309.70000000000005" width="49.4" height="99.29999999999995" fill="#8493A6" stroke="#8493A6" stroke-width="0"></rect><rect x="144.09464367457798" y="228.05" width="49.4" height="180.95" fill="#8493A6" stroke="#8493A6" stroke-width="0"></rect><rect x="228.29553639548166" y="139.3" width="49.4" height="269.7" fill="#8493A6" stroke="#8493A6" stroke-width="0"></rect><rect x="312.49642911638534" y="231.60000000000002" width="49.4" height="177.39999999999998" fill="#8493A6" stroke="#8493A6" stroke-width="0"></rect><rect x="396.697321837289" y="153.50000000000003" width="49.4" height="255.49999999999997" fill="#8493A6" stroke="#8493A6" stroke-width="0"></rect><rect x="480.89821455819265" y="125.1" width="49.4" height="283.9" fill="#8493A6" stroke="#8493A6" stroke-width="0"></rect><rect x="565.0991072790963" y="171.25" width="49.4" height="237.75" fill="#8493A6" stroke="#8493A6" stroke-width="0"></rect><rect x="649.3" y="142.85000000000002" width="49.4" height="266.15" fill="#8493A6" stroke="#8493A6" stroke-width="0"></rect></g></g><g class="bottom-axis"><g class="axis-line"><path d="M 58.593750953674316,410 L 700,410" fill="none" stroke="#131300" stroke-width="2"></path></g><g class="label"><text x="0" y="0" fill="#131300" font-size="14" dominant-baseline="text-before-edge" text-anchor="middle" transform="translate(84.59375095367432, 426) rotate(0)">CARD</text><text x="0" y="0" fill="#131300" font-size="14" dominant-baseline="text-before-edge" text-anchor="middle" transform="translate(168.79464367457797, 426) rotate(0)">PHONE</text><text x="0" y="0" fill="#131300" font-size="14" dominant-baseline="text-before-edge" text-anchor="middle" transform="translate(252.99553639548165, 426) rotate(0)">EMAIL</text><text x="0" y="0" fill="#131300" font-size="14" dominant-baseline="text-before-edge" text-anchor="middle" transform="translate(337.19642911638533, 426) rotate(0)">SSN</text><text x="0" y="0" fill="#131300" font-size="14" dominant-baseline="text-before-edge" text-anchor="middle" transform="translate(421.397321837289, 426) rotate(0)">DATE</text><text x="0" y="0" fill="#131300" font-size="14" dominant-baseline="text-before-edge" text-anchor="middle" transform="translate(505.59821455819264, 426) rotate(0)">NAME</text><text x="0" y="0" fill="#131300" font-size="14" dominant-baseline="text-before-edge" text-anchor="middle" transform="translate(589.7991072790963, 426) rotate(0)">SURN</text><text x="0" y="0" fill="#131300" font-size="14" dominant-baseline="text-before-edge" text-anchor="middle" transform="translate(674, 426) rotate(0)">CITY</text></g><g class="ticks"><path d="M 84.59375095367432,411 L 84.59375095367432,416" fill="none" stroke="#131300" stroke-width="2"></path><path d="M 168.79464367457797,411 L 168.79464367457797,416" fill="none" stroke="#131300" stroke-width="2"></path><path d="M 252.99553639548165,411 L 252.99553639548165,416" fill="none" stroke="#131300" stroke-width="2"></path><path d="M 337.19642911638533,411 L 337.19642911638533,416" fill="none" stroke="#131300" stroke-width="2"></path><path d="M 421.397321837289,411 L 421.397321837289,416" fill="none" stroke="#131300" stroke-width="2"></path><path d="M 505.59821455819264,411 L 505.59821455819264,416" fill="none" stroke="#131300" stroke-width="2"></path><path d="M 589.7991072790963,411 L 589.7991072790963,416" fill="none" stroke="#131300" stroke-width="2"></path><path d="M 674,411 L 674,416" fill="none" stroke="#131300" stroke-width="2"></path></g></g><g class="left-axis"><g class="axisl-line"><path d="M 57.593750953674316,40 L 57.593750953674316,409" fill="none" stroke="#131300" stroke-width="2"></path></g><g class="label"><text x="0" y="0" fill="#131300" font-size="14" dominant-baseline="middle" text-anchor="end" transform="translate(46.593750953674316, 47) rotate(0)">1</text><text x="0" y="0" fill="#131300" font-size="14" dominant-baseline="middle" text-anchor="end" transform="translate(46.593750953674316, 82.5) rotate(0)">0.9</text><text x="0" y="0" fill="#131300" font-size="14" dominant-baseline="middle" text-anchor="end" transform="translate(46.593750953674316, 117.99999999999997) rotate(0)">0.8</text><text x="0" y="0" fill="#131300" font-size="14" dominant-baseline="middle" text-anchor="end" transform="translate(46.593750953674316, 153.50000000000003) rotate(0)">0.7</text><text x="0" y="0" fill="#131300" font-size="14" dominant-baseline="middle" text-anchor="end" transform="translate(46.593750953674316, 189) rotate(0)">0.6</text><text x="0" y="0" fill="#131300" font-size="14" dominant-baseline="middle" text-anchor="end" transform="translate(46.593750953674316, 224.5) rotate(0)">0.5</text><text x="0" y="0" fill="#131300" font-size="14" dominant-baseline="middle" text-anchor="end" transform="translate(46.593750953674316, 260) rotate(0)">0.4</text><text x="0" y="0" fill="#131300" font-size="14" dominant-baseline="middle" text-anchor="end" transform="translate(46.593750953674316, 295.5) rotate(0)">0.3</text><text x="0" y="0" fill="#131300" font-size="14" dominant-baseline="middle" text-anchor="end" transform="translate(46.593750953674316, 331) rotate(0)">0.2</text><text x="0" y="0" fill="#131300" font-size="14" dominant-baseline="middle" text-anchor="end" transform="translate(46.593750953674316, 366.5) rotate(0)">0.1</text><text x="0" y="0" fill="#131300" font-size="14" dominant-baseline="middle" text-anchor="end" transform="translate(46.593750953674316, 402) rotate(0)">0</text></g><g class="ticks"><path d="M 56.593750953674316,47 L 51.593750953674316,47" fill="none" stroke="#131300" stroke-width="2"></path><path d="M 56.593750953674316,82.5 L 51.593750953674316,82.5" fill="none" stroke="#131300" stroke-width="2"></path><path d="M 56.593750953674316,117.99999999999997 L 51.593750953674316,117.99999999999997" fill="none" stroke="#131300" stroke-width="2"></path><path d="M 56.593750953674316,153.50000000000003 L 51.593750953674316,153.50000000000003" fill="none" stroke="#131300" stroke-width="2"></path><path d="M 56.593750953674316,189 L 51.593750953674316,189" fill="none" stroke="#131300" stroke-width="2"></path><path d="M 56.593750953674316,224.5 L 51.593750953674316,224.5" fill="none" stroke="#131300" stroke-width="2"></path><path d="M 56.593750953674316,260 L 51.593750953674316,260" fill="none" stroke="#131300" stroke-width="2"></path><path d="M 56.593750953674316,295.5 L 51.593750953674316,295.5" fill="none" stroke="#131300" stroke-width="2"></path><path d="M 56.593750953674316,331 L 51.593750953674316,331" fill="none" stroke="#131300" stroke-width="2"></path><path d="M 56.593750953674316,366.5 L 51.593750953674316,366.5" fill="none" stroke="#131300" stroke-width="2"></path><path d="M 56.593750953674316,402 L 51.593750953674316,402" fill="none" stroke="#131300" stroke-width="2"></path></g><g class="title"><text x="0" y="0" fill="#131300" font-size="16" dominant-baseline="text-before-edge" text-anchor="middle" transform="translate(5, 224.5) rotate(270)">F1 Score</text></g></g></g><g class="mermaid-tmp-group"></g></svg>