<svg id="container" width="100%" xmlns="http://www.w3.org/2000/svg" style="max-width: 600px;" viewBox="0 0 600 400" role="graphics-document document" aria-roledescription="xychart"><style>#container{font-family:"trebuchet ms",verdana,arial,sans-serif;font-size:16px;fill:#333;}@keyframes edge-animation-frame{from{stroke-dashoffset:0;}}@keyframes dash{to{stroke-dashoffset:0;}}#container .edge-animation-slow{stroke-dasharray:9,5!important;stroke-dashoffset:900;animation:dash 50s linear infinite;stroke-linecap:round;}#container .edge-animation-fast{stroke-dasharray:9,5!important;stroke-dashoffset:900;animation:dash 20s linear infinite;stroke-linecap:round;}#container .error-icon{fill:#552222;}#container .error-text{fill:#552222;stroke:#552222;}#container .edge-thickness-normal{stroke-width:1px;}#container .edge-thickness-thick{stroke-width:3.5px;}#container .edge-pattern-solid{stroke-dasharray:0;}#container .edge-thickness-invisible{stroke-width:0;fill:none;}#container .edge-pattern-dashed{stroke-dasharray:3;}#container .edge-pattern-dotted{stroke-dasharray:2;}#container .marker{fill:#333333;stroke:#333333;}#container .marker.cross{stroke:#333333;}#container svg{font-family:"trebuchet ms",verdana,arial,sans-serif;font-size:16px;}#container p{margin:0;}#container :root{--mermaid-font-family:"trebuchet ms",verdana,arial,sans-serif;}</style><g></g><g class="main"><rect width="600" height="400" class="background" fill="white"></rect><g class="chart-title"><text x="0" y="0" fill="#131300" font-size="20" dominant-baseline="middle" text-anchor="middle" transform="translate(300, 21.5) rotate(0)">INT8 Quantization Impact</text></g><g class="plot"><g class="bar-plot-0"><rect x="68.74375" y="281" width="62.699999999999996" height="85" fill="#ECECFF" stroke="#ECECFF" stroke-width="0"></rect><rect x="185.4703125" y="140.75" width="62.699999999999996" height="225.25" fill="#ECECFF" stroke="#ECECFF" stroke-width="0"></rect><rect x="302.196875" y="130.54999999999998" width="62.699999999999996" height="235.45000000000002" fill="#ECECFF" stroke="#ECECFF" stroke-width="0"></rect><rect x="418.9234375" y="133.10000000000002" width="62.699999999999996" height="232.89999999999998" fill="#ECECFF" stroke="#ECECFF" stroke-width="0"></rect><rect x="535.65" y="140.75" width="62.699999999999996" height="225.25" fill="#ECECFF" stroke="#ECECFF" stroke-width="0"></rect></g></g><g class="bottom-axis"><g class="axis-line"><path d="M 67.09375,367 L 600,367" fill="none" stroke="#131300" stroke-width="2"></path></g><g class="label"><text x="0" y="0" fill="#131300" font-size="14" dominant-baseline="text-before-edge" text-anchor="middle" transform="translate(100.09375, 378) rotate(0)">Size (GB)</text><text x="0" y="0" fill="#131300" font-size="14" dominant-baseline="text-before-edge" text-anchor="middle" transform="translate(216.8203125, 378) rotate(0)">F1</text><text x="0" y="0" fill="#131300" font-size="14" dominant-baseline="text-before-edge" text-anchor="middle" transform="translate(333.546875, 378) rotate(0)">Precision</text><text x="0" y="0" fill="#131300" font-size="14" dominant-baseline="text-before-edge" text-anchor="middle" transform="translate(450.2734375, 378) rotate(0)">Recall</text><text x="0" y="0" fill="#131300" font-size="14" dominant-baseline="text-before-edge" text-anchor="middle" transform="translate(567, 378) rotate(0)">Accuracy</text></g><g class="ticks"><path d="M 100.09375,368 L 100.09375,373" fill="none" stroke="#131300" stroke-width="2"></path><path d="M 216.8203125,368 L 216.8203125,373" fill="none" stroke="#131300" stroke-width="2"></path><path d="M 333.546875,368 L 333.546875,373" fill="none" stroke="#131300" stroke-width="2"></path><path d="M 450.2734375,368 L 450.2734375,373" fill="none" stroke="#131300" stroke-width="2"></path><path d="M 567,368 L 567,373" fill="none" stroke="#131300" stroke-width="2"></path></g></g><g class="left-axis"><g class="axisl-line"><path d="M 66.09375,43 L 66.09375,366" fill="none" stroke="#131300" stroke-width="2"></path></g><g class="label"><text x="0" y="0" fill="#131300" font-size="14" dominant-baseline="middle" text-anchor="end" transform="translate(55.09375, 51.5) rotate(0)">120</text><text x="0" y="0" fill="#131300" font-size="14" dominant-baseline="middle" text-anchor="end" transform="translate(55.09375, 77) rotate(0)">110</text><text x="0" y="0" fill="#131300" font-size="14" dominant-baseline="middle" text-anchor="end" transform="translate(55.09375, 102.5) rotate(0)">100</text><text x="0" y="0" fill="#131300" font-size="14" dominant-baseline="middle" text-anchor="end" transform="translate(55.09375, 128) rotate(0)">90</text><text x="0" y="0" fill="#131300" font-size="14" dominant-baseline="middle" text-anchor="end" transform="translate(55.09375, 153.5) rotate(0)">80</text><text x="0" y="0" fill="#131300" font-size="14" dominant-baseline="middle" text-anchor="end" transform="translate(55.09375, 178.99999999999997) rotate(0)">70</text><text x="0" y="0" fill="#131300" font-size="14" dominant-baseline="middle" text-anchor="end" transform="translate(55.09375, 204.5) rotate(0)">60</text><text x="0" y="0" fill="#131300" font-size="14" dominant-baseline="middle" text-anchor="end" transform="translate(55.09375, 229.99999999999997) rotate(0)">50</text><text x="0" y="0" fill="#131300" font-size="14" dominant-baseline="middle" text-anchor="end" transform="translate(55.09375, 255.50000000000003) rotate(0)">40</text><text x="0" y="0" fill="#131300" font-size="14" dominant-baseline="middle" text-anchor="end" transform="translate(55.09375, 281) rotate(0)">30</text><text x="0" y="0" fill="#131300" font-size="14" dominant-baseline="middle" text-anchor="end" transform="translate(55.09375, 306.5) rotate(0)">20</text><text x="0" y="0" fill="#131300" font-size="14" dominant-baseline="middle" text-anchor="end" transform="translate(55.09375, 332) rotate(0)">10</text><text x="0" y="0" fill="#131300" font-size="14" dominant-baseline="middle" text-anchor="end" transform="translate(55.09375, 357.5) rotate(0)">0</text></g><g class="ticks"><path d="M 65.09375,51.5 L 60.09375,51.5" fill="none" stroke="#131300" stroke-width="2"></path><path d="M 65.09375,77 L 60.09375,77" fill="none" stroke="#131300" stroke-width="2"></path><path d="M 65.09375,102.5 L 60.09375,102.5" fill="none" stroke="#131300" stroke-width="2"></path><path d="M 65.09375,128 L 60.09375,128" fill="none" stroke="#131300" stroke-width="2"></path><path d="M 65.09375,153.5 L 60.09375,153.5" fill="none" stroke="#131300" stroke-width="2"></path><path d="M 65.09375,178.99999999999997 L 60.09375,178.99999999999997" fill="none" stroke="#131300" stroke-width="2"></path><path d="M 65.09375,204.5 L 60.09375,204.5" fill="none" stroke="#131300" stroke-width="2"></path><path d="M 65.09375,229.99999999999997 L 60.09375,229.99999999999997" fill="none" stroke="#131300" stroke-width="2"></path><path d="M 65.09375,255.50000000000003 L 60.09375,255.50000000000003" fill="none" stroke="#131300" stroke-width="2"></path><path d="M 65.09375,281 L 60.09375,281" fill="none" stroke="#131300" stroke-width="2"></path><path d="M 65.09375,306.5 L 60.09375,306.5" fill="none" stroke="#131300" stroke-width="2"></path><path d="M 65.09375,332 L 60.09375,332" fill="none" stroke="#131300" stroke-width="2"></path><path d="M 65.09375,357.5 L 60.09375,357.5" fill="none" stroke="#131300" stroke-width="2"></path></g><g class="title"><text x="0" y="0" fill="#131300" font-size="16" dominant-baseline="text-before-edge" text-anchor="middle" transform="translate(5, 204.5) rotate(270)">Ratio to FP32 (%)</text></g></g></g><g class="mermaid-tmp-group"></g></svg>