<svg id="container" width="100%" xmlns="http://www.w3.org/2000/svg" style="max-width: 600px;" viewBox="0 0 600 400" role="graphics-document document" aria-roledescription="xychart"><style>#container{font-family:"trebuchet ms",verdana,arial,sans-serif;font-size:16px;fill:#333;}@keyframes edge-animation-frame{from{stroke-dashoffset:0;}}@keyframes dash{to{stroke-dashoffset:0;}}#container .edge-animation-slow{stroke-dasharray:9,5!important;stroke-dashoffset:900;animation:dash 50s linear infinite;stroke-linecap:round;}#container .edge-animation-fast{stroke-dasharray:9,5!important;stroke-dashoffset:900;animation:dash 20s linear infinite;stroke-linecap:round;}#container .error-icon{fill:#552222;}#container .error-text{fill:#552222;stroke:#552222;}#container .edge-thickness-normal{stroke-width:1px;}#container .edge-thickness-thick{stroke-width:3.5px;}#container .edge-pattern-solid{stroke-dasharray:0;}#container .edge-thickness-invisible{stroke-width:0;fill:none;}#container .edge-pattern-dashed{stroke-dasharray:3;}#container .edge-pattern-dotted{stroke-dasharray:2;}#container .marker{fill:#333333;stroke:#333333;}#container .marker.cross{stroke:#333333;}#container svg{font-family:"trebuchet ms",verdana,arial,sans-serif;font-size:16px;}#container p{margin:0;}#container :root{--mermaid-font-family:"trebuchet ms",verdana,arial,sans-serif;}</style><g></g><g class="main"><rect width="600" height="400" class="background" fill="white"></rect><g class="chart-title"><text x="0" y="0" fill="#131300" font-size="20" dominant-baseline="middle" text-anchor="middle" transform="translate(300, 21.5) rotate(0)">LLM Correction Accuracy (%)</text></g><g class="plot"><g class="bar-plot-0"><rect x="69.14375000000001" y="148.4" width="77.89999999999999" height="217.6" fill="#ECECFF" stroke="#ECECFF" stroke-width="0"></rect><rect x="219.44583333333338" y="164.71999999999994" width="77.89999999999999" height="201.28000000000006" fill="#ECECFF" stroke="#ECECFF" stroke-width="0"></rect><rect x="369.7479166666667" y="247.34000000000003" width="77.89999999999999" height="118.65999999999997" fill="#ECECFF" stroke="#ECECFF" stroke-width="0"></rect><rect x="520.05" y="248.35999999999999" width="77.89999999999999" height="117.64000000000001" fill="#ECECFF" stroke="#ECECFF" stroke-width="0"></rect></g></g><g class="bottom-axis"><g class="axis-line"><path d="M 67.09375,367 L 600,367" fill="none" stroke="#131300" stroke-width="2"></path></g><g class="label"><text x="0" y="0" fill="#131300" font-size="14" dominant-baseline="text-before-edge" text-anchor="middle" transform="translate(108.09375, 378) rotate(0)">4-turbo</text><text x="0" y="0" fill="#131300" font-size="14" dominant-baseline="text-before-edge" text-anchor="middle" transform="translate(258.39583333333337, 378) rotate(0)">4o</text><text x="0" y="0" fill="#131300" font-size="14" dominant-baseline="text-before-edge" text-anchor="middle" transform="translate(408.6979166666667, 378) rotate(0)">4o-mini</text><text x="0" y="0" fill="#131300" font-size="14" dominant-baseline="text-before-edge" text-anchor="middle" transform="translate(559, 378) rotate(0)">3.5-turbo</text></g><g class="ticks"><path d="M 108.09375,368 L 108.09375,373" fill="none" stroke="#131300" stroke-width="2"></path><path d="M 258.39583333333337,368 L 258.39583333333337,373" fill="none" stroke="#131300" stroke-width="2"></path><path d="M 408.6979166666667,368 L 408.6979166666667,373" fill="none" stroke="#131300" stroke-width="2"></path><path d="M 559,368 L 559,373" fill="none" stroke="#131300" stroke-width="2"></path></g></g><g class="left-axis"><g class="axisl-line"><path d="M 66.09375,43 L 66.09375,366" fill="none" stroke="#131300" stroke-width="2"></path></g><g class="label"><text x="0" y="0" fill="#131300" font-size="14" dominant-baseline="middle" text-anchor="end" transform="translate(55.09375, 51.5) rotate(0)">100</text><text x="0" y="0" fill="#131300" font-size="14" dominant-baseline="middle" text-anchor="end" transform="translate(55.09375, 71.9) rotate(0)">98</text><text x="0" y="0" fill="#131300" font-size="14" dominant-baseline="middle" text-anchor="end" transform="translate(55.09375, 92.29999999999998) rotate(0)">96</text><text x="0" y="0" fill="#131300" font-size="14" dominant-baseline="middle" text-anchor="end" transform="translate(55.09375, 112.69999999999999) rotate(0)">94</text><text x="0" y="0" fill="#131300" font-size="14" dominant-baseline="middle" text-anchor="end" transform="translate(55.09375, 133.10000000000002) rotate(0)">92</text><text x="0" y="0" fill="#131300" font-size="14" dominant-baseline="middle" text-anchor="end" transform="translate(55.09375, 153.5) rotate(0)">90</text><text x="0" y="0" fill="#131300" font-size="14" dominant-baseline="middle" text-anchor="end" transform="translate(55.09375, 173.9) rotate(0)">88</text><text x="0" y="0" fill="#131300" font-size="14" dominant-baseline="middle" text-anchor="end" transform="translate(55.09375, 194.3) rotate(0)">86</text><text x="0" y="0" fill="#131300" font-size="14" dominant-baseline="middle" text-anchor="end" transform="translate(55.09375, 214.7) rotate(0)">84</text><text x="0" y="0" fill="#131300" font-size="14" dominant-baseline="middle" text-anchor="end" transform="translate(55.09375, 235.1) rotate(0)">82</text><text x="0" y="0" fill="#131300" font-size="14" dominant-baseline="middle" text-anchor="end" transform="translate(55.09375, 255.50000000000003) rotate(0)">80</text><text x="0" y="0" fill="#131300" font-size="14" dominant-baseline="middle" text-anchor="end" transform="translate(55.09375, 275.90000000000003) rotate(0)">78</text><text x="0" y="0" fill="#131300" font-size="14" dominant-baseline="middle" text-anchor="end" transform="translate(55.09375, 296.3) rotate(0)">76</text><text x="0" y="0" fill="#131300" font-size="14" dominant-baseline="middle" text-anchor="end" transform="translate(55.09375, 316.70000000000005) rotate(0)">74</text><text x="0" y="0" fill="#131300" font-size="14" dominant-baseline="middle" text-anchor="end" transform="translate(55.09375, 337.1) rotate(0)">72</text><text x="0" y="0" fill="#131300" font-size="14" dominant-baseline="middle" text-anchor="end" transform="translate(55.09375, 357.5) rotate(0)">70</text></g><g class="ticks"><path d="M 65.09375,51.5 L 60.09375,51.5" fill="none" stroke="#131300" stroke-width="2"></path><path d="M 65.09375,71.9 L 60.09375,71.9" fill="none" stroke="#131300" stroke-width="2"></path><path d="M 65.09375,92.29999999999998 L 60.09375,92.29999999999998" fill="none" stroke="#131300" stroke-width="2"></path><path d="M 65.09375,112.69999999999999 L 60.09375,112.69999999999999" fill="none" stroke="#131300" stroke-width="2"></path><path d="M 65.09375,133.10000000000002 L 60.09375,133.10000000000002" fill="none" stroke="#131300" stroke-width="2"></path><path d="M 65.09375,153.5 L 60.09375,153.5" fill="none" stroke="#131300" stroke-width="2"></path><path d="M 65.09375,173.9 L 60.09375,173.9" fill="none" stroke="#131300" stroke-width="2"></path><path d="M 65.09375,194.3 L 60.09375,194.3" fill="none" stroke="#131300" stroke-width="2"></path><path d="M 65.09375,214.7 L 60.09375,214.7" fill="none" stroke="#131300" stroke-width="2"></path><path d="M 65.09375,235.1 L 60.09375,235.1" fill="none" stroke="#131300" stroke-width="2"></path><path d="M 65.09375,255.50000000000003 L 60.09375,255.50000000000003" fill="none" stroke="#131300" stroke-width="2"></path><path d="M 65.09375,275.90000000000003 L 60.09375,275.90000000000003" fill="none" stroke="#131300" stroke-width="2"></path><path d="M 65.09375,296.3 L 60.09375,296.3" fill="none" stroke="#131300" stroke-width="2"></path><path d="M 65.09375,316.70000000000005 L 60.09375,316.70000000000005" fill="none" stroke="#131300" stroke-width="2"></path><path d="M 65.09375,337.1 L 60.09375,337.1" fill="none" stroke="#131300" stroke-width="2"></path><path d="M 65.09375,357.5 L 60.09375,357.5" fill="none" stroke="#131300" stroke-width="2"></path></g><g class="title"><text x="0" y="0" fill="#131300" font-size="16" dominant-baseline="text-before-edge" text-anchor="middle" transform="translate(5, 204.5) rotate(270)">Accuracy (%)</text></g></g></g><g class="mermaid-tmp-group"></g></svg>