<svg id="container" width="100%" xmlns="http://www.w3.org/2000/svg" style="max-width: 600px;" viewBox="0 0 600 400" role="graphics-document document" aria-roledescription="xychart"><style>#container{font-family:"trebuchet ms",verdana,arial,sans-serif;font-size:16px;fill:#333;}@keyframes edge-animation-frame{from{stroke-dashoffset:0;}}@keyframes dash{to{stroke-dashoffset:0;}}#container .edge-animation-slow{stroke-dasharray:9,5!important;stroke-dashoffset:900;animation:dash 50s linear infinite;stroke-linecap:round;}#container .edge-animation-fast{stroke-dasharray:9,5!important;stroke-dashoffset:900;animation:dash 20s linear infinite;stroke-linecap:round;}#container .error-icon{fill:#552222;}#container .error-text{fill:#552222;stroke:#552222;}#container .edge-thickness-normal{stroke-width:1px;}#container .edge-thickness-thick{stroke-width:3.5px;}#container .edge-pattern-solid{stroke-dasharray:0;}#container .edge-thickness-invisible{stroke-width:0;fill:none;}#container .edge-pattern-dashed{stroke-dasharray:3;}#container .edge-pattern-dotted{stroke-dasharray:2;}#container .marker{fill:#333333;stroke:#333333;}#container .marker.cross{stroke:#333333;}#container svg{font-family:"trebuchet ms",verdana,arial,sans-serif;font-size:16px;}#container p{margin:0;}#container :root{--mermaid-font-family:"trebuchet ms",verdana,arial,sans-serif;}</style><g></g><g class="main"><rect width="600" height="400" class="background" fill="white"></rect><g class="chart-title"><text x="0" y="0" fill="#131300" font-size="20" dominant-baseline="middle" text-anchor="middle" transform="translate(300, 21.5) rotate(0)">Inference Latency (ms)</text></g><g class="plot"><g class="bar-plot-0"><rect x="77.53125" y="251.77700000000004" width="76" height="114.22299999999996" fill="#ECECFF" stroke="#ECECFF" stroke-width="0"></rect><rect x="225.6875" y="191.954" width="76" height="174.046" fill="#ECECFF" stroke="#ECECFF" stroke-width="0"></rect><rect x="373.84375" y="190.577" width="76" height="175.423" fill="#ECECFF" stroke="#ECECFF" stroke-width="0"></rect><rect x="522" y="124.17500000000001" width="76" height="241.825" fill="#ECECFF" stroke="#ECECFF" stroke-width="0"></rect></g></g><g class="bottom-axis"><g class="axis-line"><path d="M 75.53125,367 L 600,367" fill="none" stroke="#131300" stroke-width="2"></path></g><g class="label"><text x="0" y="0" fill="#131300" font-size="14" dominant-baseline="text-before-edge" text-anchor="middle" transform="translate(115.53125, 378) rotate(0)">3.5-turbo</text><text x="0" y="0" fill="#131300" font-size="14" dominant-baseline="text-before-edge" text-anchor="middle" transform="translate(263.6875, 378) rotate(0)">4o-mini</text><text x="0" y="0" fill="#131300" font-size="14" dominant-baseline="text-before-edge" text-anchor="middle" transform="translate(411.84375, 378) rotate(0)">4o</text><text x="0" y="0" fill="#131300" font-size="14" dominant-baseline="text-before-edge" text-anchor="middle" transform="translate(560, 378) rotate(0)">4-turbo</text></g><g class="ticks"><path d="M 115.53125,368 L 115.53125,373" fill="none" stroke="#131300" stroke-width="2"></path><path d="M 263.6875,368 L 263.6875,373" fill="none" stroke="#131300" stroke-width="2"></path><path d="M 411.84375,368 L 411.84375,373" fill="none" stroke="#131300" stroke-width="2"></path><path d="M 560,368 L 560,373" fill="none" stroke="#131300" stroke-width="2"></path></g></g><g class="left-axis"><g class="axisl-line"><path d="M 74.53125,43 L 74.53125,366" fill="none" stroke="#131300" stroke-width="2"></path></g><g class="label"><text x="0" y="0" fill="#131300" font-size="14" dominant-baseline="middle" text-anchor="end" transform="translate(63.53125, 51.5) rotate(0)">2000</text><text x="0" y="0" fill="#131300" font-size="14" dominant-baseline="middle" text-anchor="end" transform="translate(63.53125, 82.1) rotate(0)">1800</text><text x="0" y="0" fill="#131300" font-size="14" dominant-baseline="middle" text-anchor="end" transform="translate(63.53125, 112.69999999999999) rotate(0)">1600</text><text x="0" y="0" fill="#131300" font-size="14" dominant-baseline="middle" text-anchor="end" transform="translate(63.53125, 143.3) rotate(0)">1400</text><text x="0" y="0" fill="#131300" font-size="14" dominant-baseline="middle" text-anchor="end" transform="translate(63.53125, 173.9) rotate(0)">1200</text><text x="0" y="0" fill="#131300" font-size="14" dominant-baseline="middle" text-anchor="end" transform="translate(63.53125, 204.5) rotate(0)">1000</text><text x="0" y="0" fill="#131300" font-size="14" dominant-baseline="middle" text-anchor="end" transform="translate(63.53125, 235.1) rotate(0)">800</text><text x="0" y="0" fill="#131300" font-size="14" dominant-baseline="middle" text-anchor="end" transform="translate(63.53125, 265.7) rotate(0)">600</text><text x="0" y="0" fill="#131300" font-size="14" dominant-baseline="middle" text-anchor="end" transform="translate(63.53125, 296.3) rotate(0)">400</text><text x="0" y="0" fill="#131300" font-size="14" dominant-baseline="middle" text-anchor="end" transform="translate(63.53125, 326.9) rotate(0)">200</text><text x="0" y="0" fill="#131300" font-size="14" dominant-baseline="middle" text-anchor="end" transform="translate(63.53125, 357.5) rotate(0)">0</text></g><g class="ticks"><path d="M 73.53125,51.5 L 68.53125,51.5" fill="none" stroke="#131300" stroke-width="2"></path><path d="M 73.53125,82.1 L 68.53125,82.1" fill="none" stroke="#131300" stroke-width="2"></path><path d="M 73.53125,112.69999999999999 L 68.53125,112.69999999999999" fill="none" stroke="#131300" stroke-width="2"></path><path d="M 73.53125,143.3 L 68.53125,143.3" fill="none" stroke="#131300" stroke-width="2"></path><path d="M 73.53125,173.9 L 68.53125,173.9" fill="none" stroke="#131300" stroke-width="2"></path><path d="M 73.53125,204.5 L 68.53125,204.5" fill="none" stroke="#131300" stroke-width="2"></path><path d="M 73.53125,235.1 L 68.53125,235.1" fill="none" stroke="#131300" stroke-width="2"></path><path d="M 73.53125,265.7 L 68.53125,265.7" fill="none" stroke="#131300" stroke-width="2"></path><path d="M 73.53125,296.3 L 68.53125,296.3" fill="none" stroke="#131300" stroke-width="2"></path><path d="M 73.53125,326.9 L 68.53125,326.9" fill="none" stroke="#131300" stroke-width="2"></path><path d="M 73.53125,357.5 L 68.53125,357.5" fill="none" stroke="#131300" stroke-width="2"></path></g><g class="title"><text x="0" y="0" fill="#131300" font-size="16" dominant-baseline="text-before-edge" text-anchor="middle" transform="translate(5, 204.5) rotate(270)">Latency (ms)</text></g></g></g><g class="mermaid-tmp-group"></g></svg>