<svg id="container" width="100%" xmlns="http://www.w3.org/2000/svg" style="max-width: 600px;" viewBox="0 0 600 400" role="graphics-document document" aria-roledescription="xychart"><style>#container{font-family:"trebuchet ms",verdana,arial,sans-serif;font-size:16px;fill:#333;}@keyframes edge-animation-frame{from{stroke-dashoffset:0;}}@keyframes dash{to{stroke-dashoffset:0;}}#container .edge-animation-slow{stroke-dasharray:9,5!important;stroke-dashoffset:900;animation:dash 50s linear infinite;stroke-linecap:round;}#container .edge-animation-fast{stroke-dasharray:9,5!important;stroke-dashoffset:900;animation:dash 20s linear infinite;stroke-linecap:round;}#container .error-icon{fill:#552222;}#container .error-text{fill:#552222;stroke:#552222;}#container .edge-thickness-normal{stroke-width:1px;}#container .edge-thickness-thick{stroke-width:3.5px;}#container .edge-pattern-solid{stroke-dasharray:0;}#container .edge-thickness-invisible{stroke-width:0;fill:none;}#container .edge-pattern-dashed{stroke-dasharray:3;}#container .edge-pattern-dotted{stroke-dasharray:2;}#container .marker{fill:#333333;stroke:#333333;}#container .marker.cross{stroke:#333333;}#container svg{font-family:"trebuchet ms",verdana,arial,sans-serif;font-size:16px;}#container p{margin:0;}#container :root{--mermaid-font-family:"trebuchet ms",verdana,arial,sans-serif;}</style><g></g><g class="main"><rect width="600" height="400" class="background" fill="white"></rect><g class="chart-title"><text x="0" y="0" fill="#131300" font-size="20" dominant-baseline="middle" text-anchor="middle" transform="translate(300, 21.5) rotate(0)">Routing Strategy Comparison</text></g><g class="plot"><g class="bar-plot-0"><rect x="74.17500000000001" y="76.41714285714285" width="96.89999999999999" height="289.58285714285716" fill="#ECECFF" stroke="#ECECFF" stroke-width="0"></rect><rect x="287.3625" y="118.38285714285713" width="96.89999999999999" height="247.61714285714288" fill="#ECECFF" stroke="#ECECFF" stroke-width="0"></rect><rect x="500.55" y="280.5628571428571" width="96.89999999999999" height="85.43714285714287" fill="#ECECFF" stroke="#ECECFF" stroke-width="0"></rect></g></g><g class="bottom-axis"><g class="axis-line"><path d="M 71.625,367 L 600,367" fill="none" stroke="#131300" stroke-width="2"></path></g><g class="label"><text x="0" y="0" fill="#131300" font-size="14" dominant-baseline="text-before-edge" text-anchor="middle" transform="translate(122.625, 378) rotate(0)">No Select</text><text x="0" y="0" fill="#131300" font-size="14" dominant-baseline="text-before-edge" text-anchor="middle" transform="translate(335.8125, 378) rotate(0)">Select Only</text><text x="0" y="0" fill="#131300" font-size="14" dominant-baseline="text-before-edge" text-anchor="middle" transform="translate(549, 378) rotate(0)">Select+I-Block</text></g><g class="ticks"><path d="M 122.625,368 L 122.625,373" fill="none" stroke="#131300" stroke-width="2"></path><path d="M 335.8125,368 L 335.8125,373" fill="none" stroke="#131300" stroke-width="2"></path><path d="M 549,368 L 549,373" fill="none" stroke="#131300" stroke-width="2"></path></g></g><g class="left-axis"><g class="axisl-line"><path d="M 70.625,43 L 70.625,366" fill="none" stroke="#131300" stroke-width="2"></path></g><g class="label"><text x="0" y="0" fill="#131300" font-size="14" dominant-baseline="middle" text-anchor="end" transform="translate(59.625, 51.5) rotate(0)">600</text><text x="0" y="0" fill="#131300" font-size="14" dominant-baseline="middle" text-anchor="end" transform="translate(59.625, 73.35714285714285) rotate(0)">550</text><text x="0" y="0" fill="#131300" font-size="14" dominant-baseline="middle" text-anchor="end" transform="translate(59.625, 95.21428571428572) rotate(0)">500</text><text x="0" y="0" fill="#131300" font-size="14" dominant-baseline="middle" text-anchor="end" transform="translate(59.625, 117.07142857142858) rotate(0)">450</text><text x="0" y="0" fill="#131300" font-size="14" dominant-baseline="middle" text-anchor="end" transform="translate(59.625, 138.92857142857142) rotate(0)">400</text><text x="0" y="0" fill="#131300" font-size="14" dominant-baseline="middle" text-anchor="end" transform="translate(59.625, 160.78571428571428) rotate(0)">350</text><text x="0" y="0" fill="#131300" font-size="14" dominant-baseline="middle" text-anchor="end" transform="translate(59.625, 182.64285714285714) rotate(0)">300</text><text x="0" y="0" fill="#131300" font-size="14" dominant-baseline="middle" text-anchor="end" transform="translate(59.625, 204.5) rotate(0)">250</text><text x="0" y="0" fill="#131300" font-size="14" dominant-baseline="middle" text-anchor="end" transform="translate(59.625, 226.35714285714283) rotate(0)">200</text><text x="0" y="0" fill="#131300" font-size="14" dominant-baseline="middle" text-anchor="end" transform="translate(59.625, 248.2142857142857) rotate(0)">150</text><text x="0" y="0" fill="#131300" font-size="14" dominant-baseline="middle" text-anchor="end" transform="translate(59.625, 270.07142857142856) rotate(0)">100</text><text x="0" y="0" fill="#131300" font-size="14" dominant-baseline="middle" text-anchor="end" transform="translate(59.625, 291.9285714285714) rotate(0)">50</text><text x="0" y="0" fill="#131300" font-size="14" dominant-baseline="middle" text-anchor="end" transform="translate(59.625, 313.7857142857143) rotate(0)">0</text><text x="0" y="0" fill="#131300" font-size="14" dominant-baseline="middle" text-anchor="end" transform="translate(59.625, 335.64285714285717) rotate(0)">-50</text><text x="0" y="0" fill="#131300" font-size="14" dominant-baseline="middle" text-anchor="end" transform="translate(59.625, 357.5) rotate(0)">-100</text></g><g class="ticks"><path d="M 69.625,51.5 L 64.625,51.5" fill="none" stroke="#131300" stroke-width="2"></path><path d="M 69.625,73.35714285714285 L 64.625,73.35714285714285" fill="none" stroke="#131300" stroke-width="2"></path><path d="M 69.625,95.21428571428572 L 64.625,95.21428571428572" fill="none" stroke="#131300" stroke-width="2"></path><path d="M 69.625,117.07142857142858 L 64.625,117.07142857142858" fill="none" stroke="#131300" stroke-width="2"></path><path d="M 69.625,138.92857142857142 L 64.625,138.92857142857142" fill="none" stroke="#131300" stroke-width="2"></path><path d="M 69.625,160.78571428571428 L 64.625,160.78571428571428" fill="none" stroke="#131300" stroke-width="2"></path><path d="M 69.625,182.64285714285714 L 64.625,182.64285714285714" fill="none" stroke="#131300" stroke-width="2"></path><path d="M 69.625,204.5 L 64.625,204.5" fill="none" stroke="#131300" stroke-width="2"></path><path d="M 69.625,226.35714285714283 L 64.625,226.35714285714283" fill="none" stroke="#131300" stroke-width="2"></path><path d="M 69.625,248.2142857142857 L 64.625,248.2142857142857" fill="none" stroke="#131300" stroke-width="2"></path><path d="M 69.625,270.07142857142856 L 64.625,270.07142857142856" fill="none" stroke="#131300" stroke-width="2"></path><path d="M 69.625,291.9285714285714 L 64.625,291.9285714285714" fill="none" stroke="#131300" stroke-width="2"></path><path d="M 69.625,313.7857142857143 L 64.625,313.7857142857143" fill="none" stroke="#131300" stroke-width="2"></path><path d="M 69.625,335.64285714285717 L 64.625,335.64285714285717" fill="none" stroke="#131300" stroke-width="2"></path><path d="M 69.625,357.5 L 64.625,357.5" fill="none" stroke="#131300" stroke-width="2"></path></g><g class="title"><text x="0" y="0" fill="#131300" font-size="16" dominant-baseline="text-before-edge" text-anchor="middle" transform="translate(5, 204.5) rotate(270)">Net Improvement</text></g></g></g><g class="mermaid-tmp-group"></g></svg>