<svg id="container" width="100%" xmlns="http://www.w3.org/2000/svg" style="max-width: 600px;" viewBox="0 0 600 400" role="graphics-document document" aria-roledescription="xychart"><style>#container{font-family:"trebuchet ms",verdana,arial,sans-serif;font-size:16px;fill:#333;}@keyframes edge-animation-frame{from{stroke-dashoffset:0;}}@keyframes dash{to{stroke-dashoffset:0;}}#container .edge-animation-slow{stroke-dasharray:9,5!important;stroke-dashoffset:900;animation:dash 50s linear infinite;stroke-linecap:round;}#container .edge-animation-fast{stroke-dasharray:9,5!important;stroke-dashoffset:900;animation:dash 20s linear infinite;stroke-linecap:round;}#container .error-icon{fill:#552222;}#container .error-text{fill:#552222;stroke:#552222;}#container .edge-thickness-normal{stroke-width:1px;}#container .edge-thickness-thick{stroke-width:3.5px;}#container .edge-pattern-solid{stroke-dasharray:0;}#container .edge-thickness-invisible{stroke-width:0;fill:none;}#container .edge-pattern-dashed{stroke-dasharray:3;}#container .edge-pattern-dotted{stroke-dasharray:2;}#container .marker{fill:#333333;stroke:#333333;}#container .marker.cross{stroke:#333333;}#container svg{font-family:"trebuchet ms",verdana,arial,sans-serif;font-size:16px;}#container p{margin:0;}#container :root{--mermaid-font-family:"trebuchet ms",verdana,arial,sans-serif;}</style><g></g><g class="main"><rect width="600" height="400" class="background" fill="white"></rect><g class="chart-title"><text x="0" y="0" fill="#131300" font-size="20" dominant-baseline="middle" text-anchor="middle" transform="translate(300, 21.5) rotate(0)">Threshold Sensitivity: F0.5 vs Entropy θ</text></g><g class="plot"><g class="line-plot-0"><path d="M83.688,281L167.643,235.1L251.599,204.5L335.555,173.9L419.51,204.5L503.466,235.1L587.422,281" fill="none" stroke="#ECECFF" stroke-width="2"></path></g></g><g class="bottom-axis"><g class="axis-line"><path d="M 71.109375,367 L 600,367" fill="none" stroke="#131300" stroke-width="2"></path></g><g class="label"><text x="0" y="0" fill="#131300" font-size="14" dominant-baseline="text-before-edge" text-anchor="middle" transform="translate(83.6875, 378) rotate(0)">0.3</text><text x="0" y="0" fill="#131300" font-size="14" dominant-baseline="text-before-edge" text-anchor="middle" transform="translate(167.64322916666669, 378) rotate(0)">0.4</text><text x="0" y="0" fill="#131300" font-size="14" dominant-baseline="text-before-edge" text-anchor="middle" transform="translate(251.59895833333334, 378) rotate(0)">0.5</text><text x="0" y="0" fill="#131300" font-size="14" dominant-baseline="text-before-edge" text-anchor="middle" transform="translate(335.5546875, 378) rotate(0)">0.58</text><text x="0" y="0" fill="#131300" font-size="14" dominant-baseline="text-before-edge" text-anchor="middle" transform="translate(419.5104166666667, 378) rotate(0)">0.7</text><text x="0" y="0" fill="#131300" font-size="14" dominant-baseline="text-before-edge" text-anchor="middle" transform="translate(503.46614583333337, 378) rotate(0)">0.8</text><text x="0" y="0" fill="#131300" font-size="14" dominant-baseline="text-before-edge" text-anchor="middle" transform="translate(587.421875, 378) rotate(0)">1.0</text></g><g class="ticks"><path d="M 83.6875,368 L 83.6875,373" fill="none" stroke="#131300" stroke-width="2"></path><path d="M 167.64322916666669,368 L 167.64322916666669,373" fill="none" stroke="#131300" stroke-width="2"></path><path d="M 251.59895833333334,368 L 251.59895833333334,373" fill="none" stroke="#131300" stroke-width="2"></path><path d="M 335.5546875,368 L 335.5546875,373" fill="none" stroke="#131300" stroke-width="2"></path><path d="M 419.5104166666667,368 L 419.5104166666667,373" fill="none" stroke="#131300" stroke-width="2"></path><path d="M 503.46614583333337,368 L 503.46614583333337,373" fill="none" stroke="#131300" stroke-width="2"></path><path d="M 587.421875,368 L 587.421875,373" fill="none" stroke="#131300" stroke-width="2"></path></g></g><g class="left-axis"><g class="axisl-line"><path d="M 70.109375,43 L 70.109375,366" fill="none" stroke="#131300" stroke-width="2"></path></g><g class="label"><text x="0" y="0" fill="#131300" font-size="14" dominant-baseline="middle" text-anchor="end" transform="translate(59.109375, 51.5) rotate(0)">0.5</text><text x="0" y="0" fill="#131300" font-size="14" dominant-baseline="middle" text-anchor="end" transform="translate(59.109375, 82.10000000000002) rotate(0)">0.48</text><text x="0" y="0" fill="#131300" font-size="14" dominant-baseline="middle" text-anchor="end" transform="translate(59.109375, 112.69999999999996) rotate(0)">0.46</text><text x="0" y="0" fill="#131300" font-size="14" dominant-baseline="middle" text-anchor="end" transform="translate(59.109375, 143.29999999999998) rotate(0)">0.44</text><text x="0" y="0" fill="#131300" font-size="14" dominant-baseline="middle" text-anchor="end" transform="translate(59.109375, 173.9) rotate(0)">0.42</text><text x="0" y="0" fill="#131300" font-size="14" dominant-baseline="middle" text-anchor="end" transform="translate(59.109375, 204.49999999999997) rotate(0)">0.4</text><text x="0" y="0" fill="#131300" font-size="14" dominant-baseline="middle" text-anchor="end" transform="translate(59.109375, 235.09999999999994) rotate(0)">0.38</text><text x="0" y="0" fill="#131300" font-size="14" dominant-baseline="middle" text-anchor="end" transform="translate(59.109375, 265.7) rotate(0)">0.36</text><text x="0" y="0" fill="#131300" font-size="14" dominant-baseline="middle" text-anchor="end" transform="translate(59.109375, 296.29999999999995) rotate(0)">0.34</text><text x="0" y="0" fill="#131300" font-size="14" dominant-baseline="middle" text-anchor="end" transform="translate(59.109375, 326.8999999999999) rotate(0)">0.32</text><text x="0" y="0" fill="#131300" font-size="14" dominant-baseline="middle" text-anchor="end" transform="translate(59.109375, 357.5) rotate(0)">0.3</text></g><g class="ticks"><path d="M 69.109375,51.5 L 64.109375,51.5" fill="none" stroke="#131300" stroke-width="2"></path><path d="M 69.109375,82.10000000000002 L 64.109375,82.10000000000002" fill="none" stroke="#131300" stroke-width="2"></path><path d="M 69.109375,112.69999999999996 L 64.109375,112.69999999999996" fill="none" stroke="#131300" stroke-width="2"></path><path d="M 69.109375,143.29999999999998 L 64.109375,143.29999999999998" fill="none" stroke="#131300" stroke-width="2"></path><path d="M 69.109375,173.9 L 64.109375,173.9" fill="none" stroke="#131300" stroke-width="2"></path><path d="M 69.109375,204.49999999999997 L 64.109375,204.49999999999997" fill="none" stroke="#131300" stroke-width="2"></path><path d="M 69.109375,235.09999999999994 L 64.109375,235.09999999999994" fill="none" stroke="#131300" stroke-width="2"></path><path d="M 69.109375,265.7 L 64.109375,265.7" fill="none" stroke="#131300" stroke-width="2"></path><path d="M 69.109375,296.29999999999995 L 64.109375,296.29999999999995" fill="none" stroke="#131300" stroke-width="2"></path><path d="M 69.109375,326.8999999999999 L 64.109375,326.8999999999999" fill="none" stroke="#131300" stroke-width="2"></path><path d="M 69.109375,357.5 L 64.109375,357.5" fill="none" stroke="#131300" stroke-width="2"></path></g><g class="title"><text x="0" y="0" fill="#131300" font-size="16" dominant-baseline="text-before-edge" text-anchor="middle" transform="translate(5, 204.5) rotate(270)">F0.5 Score</text></g></g></g><g class="mermaid-tmp-group"></g></svg>